# xmcd
#
# Track frame offsets:
#  150
#  15600
#  30287
#  40253
#  49901
#  69350
#  80302
#  100302
#  116974
#  133625
#  154791
#  170753
#  185181
#  203037
#  221624
#  239357
#  255769
#  268646
#  284064
#  295891
#
# Disc length: 4110 seconds
#
# Revision: 0
# Processed by: cddbd v1.5.2PL0 Copyright (c) Steve Scherf et al.
# Submitted via: AltoMP3_Maker 3.0
#
DISCID=27100c14
DTITLE=Various Artist - 100 Oorspronklike Afrikaanse treffers
DYEAR=1900
DGENRE=
TTITLE0=Soos Bloed
TTITLE1=Drakensberge van berlange
TTITLE2=Sewe Sakke sout
TTITLE3=Bokka
TTITLE4=Skarumba
TTITLE5=Oukraalliedjie
TTITLE6=Mamma Leonie
TTITLE7=Ou Ryperd
TTITLE8=Dankie liewe ouma
TTITLE9=Beautiful in beaufortwes
TTITLE10=Agter elke man
TTITLE11=Ek kyk graag so dief in jou oe
TTITLE12=Jy's n ster vir my
TTITLE13=Droom van my geluk
TTITLE14=Die gezoem van die bye
TTITLE15=Pennies op die spoor
TTITLE16=Lepelle
TTITLE17=Lied van die lewe
TTITLE18=Dankie
TTITLE19=Vat vat
EXTD=
EXTT0=
EXTT1=
EXTT2=
EXTT3=
EXTT4=
EXTT5=
EXTT6=
EXTT7=
EXTT8=
EXTT9=
EXTT10=
EXTT11=
EXTT12=
EXTT13=
EXTT14=
EXTT15=
EXTT16=
EXTT17=
EXTT18=
EXTT19=
PLAYORDER=
